<svg width="34" height="28" viewBox="0 0 34 28" fill="none" xmlns="http://www.w3.org/2000/svg">
<path d="M0.843313 9.296V5.48H7.49131V23H3.21931V9.296H0.843313ZM19.8508 0.199999L13.4188 27.488H9.45875L15.8908 0.199999H19.8508ZM21.0298 19.712C21.5738 19.28 21.8218 19.08 21.7738 19.112C23.3418 17.816 24.5738 16.752 25.4698 15.92C26.3818 15.088 27.1498 14.216 27.7738 13.304C28.3978 12.392 28.7098 11.504 28.7098 10.64C28.7098 9.984 28.5578 9.472 28.2538 9.104C27.9498 8.736 27.4938 8.552 26.8858 8.552C26.2778 8.552 25.7978 8.784 25.4458 9.248C25.1098 9.696 24.9418 10.336 24.9418 11.168H20.9818C21.0138 9.808 21.3018 8.672 21.8458 7.76C22.4058 6.848 23.1338 6.176 24.0298 5.744C24.9418 5.312 25.9498 5.096 27.0538 5.096C28.9578 5.096 30.3898 5.584 31.3498 6.56C32.3258 7.536 32.8138 8.808 32.8138 10.376C32.8138 12.088 32.2298 13.68 31.0618 15.152C29.8938 16.608 28.4058 18.032 26.5978 19.424H33.0778V22.76H21.0298V19.712Z" fill="black"/>
</svg>
