<svg width="105" height="105" viewBox="0 0 105 105" fill="none" xmlns="http://www.w3.org/2000/svg">
<path d="M48.332 25.4612C49.257 20.9221 55.743 20.9221 56.668 25.4612C57.6001 30.0351 63.0332 32.0126 66.6873 29.1079C70.3136 26.2253 75.2822 30.3945 73.0731 34.4663C70.8471 38.5692 73.738 43.5764 78.4042 43.7C83.035 43.8228 84.1613 50.2103 79.8518 51.9095C75.5092 53.6217 74.5052 59.3156 78.0003 62.4098C81.4688 65.4804 78.2257 71.0975 73.8323 69.629C69.4051 68.1493 64.976 71.8657 65.6645 76.4826C66.3477 81.0643 60.2528 83.2827 57.8311 79.3337C55.3909 75.3544 49.6091 75.3544 47.1689 79.3337C44.7472 83.2827 38.6523 81.0643 39.3355 76.4826C40.024 71.8657 35.5949 68.1493 31.1677 69.629C26.7743 71.0975 23.5312 65.4804 26.9997 62.4098C30.4948 59.3156 29.4908 53.6217 25.1482 51.9095C20.8387 50.2103 21.965 43.8228 26.5958 43.7C31.262 43.5764 34.1529 38.5692 31.9269 34.4663C29.7178 30.3945 34.6864 26.2253 38.3127 29.1079C41.9668 32.0126 47.3999 30.0351 48.332 25.4612Z" stroke="#FE6363" stroke-width="2"/>
<path fill-rule="evenodd" clip-rule="evenodd" d="M53 36.7689C49.245 36.7689 45.7585 37.9187 42.8734 39.8855C42.8734 39.8855 40.1344 46.142 40.2155 50.1894C40.3014 54.4739 40.3323 57.1066 42.2509 60.9385C43.7286 63.8898 46.2355 65.8673 48.4205 67.4897C50.6054 69.1121 52.219 69.6156 54.9081 70.0339C59.0424 70.6769 64.7051 68.4438 64.7051 68.4438C68.5583 65.1425 71 60.2408 71 54.7689C71 44.8277 62.9411 36.7689 53 36.7689Z" fill="#F77676"/>
<path d="M35 54.7689C35 64.71 43.0589 72.7689 53 72.7689C57.4692 72.7689 61.5579 71.1401 64.7051 68.4438C64.7051 68.4438 59.0424 70.6769 54.9081 70.0339C52.219 69.6156 50.6054 69.1121 48.4205 67.4897C46.2355 65.8673 43.7286 63.8898 42.2509 60.9385C40.3323 57.1066 40.3014 54.4739 40.2155 50.1894C40.1344 46.142 42.8734 39.8855 42.8734 39.8855C38.1206 43.1255 35 48.5828 35 54.7689Z" fill="#EA7373"/>
<path d="M53.7918 65.009C55.1225 65.9093 56.879 65.8034 57.8371 65.009C58.2797 64.642 58.6353 64.06 58.8967 63.419C58.8967 63.419 57.6431 62.1469 56.3074 62.1469C54.7757 62.1469 52.5177 63.1575 52.5177 63.1575C52.7823 63.9107 53.2029 64.6106 53.7918 65.009Z" fill="#75272D"/>
<path fill-rule="evenodd" clip-rule="evenodd" d="M59.4233 61.002C59.4233 61.002 57.7724 60.571 56.689 60.4932C54.921 60.3663 52.1787 61.002 52.1787 61.002C52.1463 61.6118 52.2553 62.4109 52.5177 63.1575C52.5177 63.1575 54.7757 62.1469 56.3074 62.1469C57.6431 62.1469 58.8967 63.419 58.8967 63.419C59.2302 62.6013 59.4106 61.6877 59.4233 61.002Z" fill="#A4373F"/>
<path d="M59.221 60.0306C58.4828 59.2227 54.324 58.8654 52.5143 60.0306C52.3181 60.1569 52.2043 60.5204 52.1787 61.002C52.1787 61.002 54.921 60.3663 56.689 60.4932C57.7724 60.571 59.4233 61.002 59.4233 61.002C59.4318 60.5449 59.3658 60.1891 59.221 60.0306Z" fill="#E2E2E2"/>
<rect x="49.8834" y="50.889" width="2.79859" height="5.72438" rx="1.39929" fill="#6D2020"/>
<rect x="58.6608" y="50.889" width="2.79859" height="5.72438" rx="1.39929" fill="#6D2020"/>
<path fill-rule="evenodd" clip-rule="evenodd" d="M54.3993 35.8784L55.8622 32.889C55.8622 32.889 52.0031 35.8644 50.2014 36.6416C48.8206 37.2373 46.258 38.3589 46.258 38.3589L52.7405 42.3673L59.8772 41.5298C59.8772 41.5298 62.3056 39.4318 62.9397 37.5876C63.6717 35.459 62.6445 31.8327 62.6445 31.8327C62.6445 31.8327 60.4634 35.728 58.0248 36.6416C56.2556 37.3044 53.1908 36.8324 53.1908 36.8324L54.3993 35.8784Z" fill="#F77676"/>
<path d="M57.8723 34.9763C56.0704 35.6288 54.3993 35.8784 54.3993 35.8784L53.1908 36.8324C53.1908 36.8324 56.2556 37.3044 58.0248 36.6416C60.4634 35.728 62.6445 31.8327 62.6445 31.8327C62.6445 31.8327 59.9695 34.2169 57.8723 34.9763Z" fill="#EA7373"/>
<ellipse cx="64.9684" cy="58.5564" rx="2.17552" ry="1.13127" transform="rotate(12.0775 64.9684 58.5564)" fill="#F05757"/>
<ellipse rx="2.17552" ry="1.13127" transform="matrix(-0.977866 0.209234 0.209234 0.977866 45.6326 58.5564)" fill="#F05757"/>
</svg>
