<svg width="21" height="23" viewBox="0 0 21 23" fill="none" xmlns="http://www.w3.org/2000/svg">
<rect y="8" width="21" height="15" fill="white"/>
<path d="M19.1739 11C19.1739 9.55546 18.9496 8.12506 18.5137 6.79048C18.0778 5.4559 17.4389 4.24327 16.6334 3.22183C15.828 2.20038 14.8718 1.39013 13.8194 0.837325C12.767 0.284523 11.6391 -6.31429e-08 10.5 0C9.36095 6.31429e-08 8.23303 0.284524 7.18066 0.837325C6.12829 1.39013 5.17209 2.20038 4.36664 3.22183C3.56119 4.24327 2.92228 5.4559 2.48637 6.79048C2.05047 8.12506 1.82611 9.55546 1.82611 11H3.68453C3.68453 9.86496 3.86082 8.74103 4.20333 7.69239C4.54584 6.64374 5.04786 5.69092 5.68074 4.88833C6.31362 4.08573 7.06495 3.44908 7.89185 3.01472C8.71874 2.58035 9.605 2.35679 10.5 2.35679C11.395 2.35679 12.2813 2.58035 13.1082 3.01472C13.9351 3.44908 14.6864 4.08573 15.3193 4.88833C15.9522 5.69092 16.4542 6.64374 16.7967 7.69239C17.1392 8.74103 17.3155 9.86496 17.3155 11H19.1739Z" fill="white"/>
</svg>
