<svg width="52" height="48" viewBox="0 0 52 48" fill="none" xmlns="http://www.w3.org/2000/svg">
<rect x="4.66669" y="0.941177" width="42.8571" height="47.0588" rx="16" fill="#1D094E"/>
<path d="M35.9406 7.64705C35.9406 7.64705 38.5472 9.56833 40.5869 9.8617C41.8149 10.0383 43.6935 9.27762 43.6935 9.27762C43.6935 9.27762 43.4709 9.65622 43.4355 9.92779C43.3585 10.5181 44.938 16.3294 44.938 16.3294L46.3788 18.1689C46.838 18.8338 48.4703 19.6588 49.7207 20.8169C50.1294 21.1954 50.4972 21.6094 50.77 22.0651C50.8976 22.2782 51.0148 22.4853 51.1217 22.6881C51.1217 22.6881 49.7891 20.6636 48.8544 20.1572C47.3568 19.3461 46.9357 18.9363 44.268 18.8103C41.5702 18.6829 40.0321 19.4233 37.9858 21.1713C36.3853 22.5385 34.8201 25.5269 34.8201 25.5269C34.8201 25.5269 34.4562 25.0861 34.0591 24.4724C34.0591 24.4724 37.8165 19.4287 37.806 18.5681C37.7915 17.3879 37.2692 16.7919 37.0642 15.6264C36.6145 13.0706 37.1654 9.5414 36.9764 8.99877C36.7586 8.37332 35.9406 7.64705 35.9406 7.64705Z" fill="#1D094E"/>
<path d="M43.6935 9.27762C43.6935 9.27762 45.047 14.4398 46.2808 17.983C46.3019 18.0436 46.335 18.1055 46.3788 18.1689L44.938 16.3294C44.938 16.3294 43.3585 10.5181 43.4355 9.92779C43.4709 9.65622 43.6935 9.27762 43.6935 9.27762Z" fill="#1D094E"/>
<path d="M35.9406 7.64705C35.9406 7.64705 34.5644 7.54184 33.8489 7.08847C33.2091 6.68307 32.1032 5.2051 32.1722 4.0123C32.2089 3.37824 32.1343 2.97592 32.6362 2.44675C33.3514 1.6928 34.383 1.66708 35.1479 1.7771C35.1479 1.7771 36.9165 1.97123 37.8995 2.49127C39.04 3.09464 40.3008 4.75982 40.3008 4.75982C38.1173 4.61093 36.5292 4.50534 36.0319 4.91107C35.7738 5.12162 34.7608 7.4483 34.7608 7.4483L35.9406 7.64705Z" fill="#1D094E"/>
<path d="M33.8489 7.08847C34.5644 7.54184 35.9406 7.64705 35.9406 7.64705C35.9406 7.64705 36.7586 8.37332 36.9764 8.99877C37.1654 9.5414 36.6145 13.0706 37.0642 15.6264C37.2692 16.7919 37.7915 17.3879 37.806 18.5681C37.8165 19.4287 34.0591 24.4724 34.0591 24.4724C33.6407 23.8258 33.1855 22.9872 33.0805 22.2698C32.9259 21.2139 33.3996 20.4872 33.5285 19.4993C33.6219 18.7477 33.5563 18.5327 33.1316 17.8958C32.6247 17.1356 31.3859 16.0124 31.3859 16.0124L29.9142 14.6839L28.2402 13.2404C28.5193 10.0995 31.1964 3.5283 31.1964 3.5283C31.1964 3.5283 31.5691 2.56285 31.9893 2.09598C32.8328 1.159 33.7691 1.06332 35.1289 1.25891C35.1289 1.25891 37.1168 1.61716 38.2064 2.26069C39.4236 2.97949 40.7836 4.80028 40.7836 4.80028C40.6227 4.78417 40.4615 4.77078 40.3008 4.75982C40.3008 4.75982 39.04 3.09464 37.8995 2.49127C36.9165 1.97123 35.1479 1.7771 35.1479 1.7771C34.383 1.66708 33.3514 1.6928 32.6362 2.44675C32.1343 2.97592 32.2089 3.37824 32.1722 4.0123C32.1032 5.2051 33.2091 6.68307 33.8489 7.08847Z" fill="#1D094E"/>
<path d="M44.4383 7.55282L43.6935 9.27762C43.6935 9.27762 41.8149 10.0383 40.5869 9.8617C38.5472 9.56833 35.9406 7.64705 35.9406 7.64705L34.7608 7.4483C34.7608 7.4483 35.7738 5.12162 36.0319 4.91107C36.5292 4.50534 38.1173 4.61093 40.3008 4.75982C40.4615 4.77078 40.6227 4.78417 40.7836 4.80028C41.2912 4.85111 41.7961 4.92909 42.2736 5.04358C43.6168 5.36562 44.4383 7.55282 44.4383 7.55282Z" fill="#1D094E"/>
<path d="M32.4897 18.8344C32.1228 17.6648 28.2861 14.8793 28.1192 14.168C28.1112 13.5655 28.1545 13.5717 28.2402 13.2404L29.9142 14.6839L31.3859 16.0124C31.3859 16.0124 32.6247 17.1356 33.1316 17.8958C33.5563 18.5327 33.6219 18.7477 33.5285 19.4993C33.3996 20.4872 32.9259 21.2139 33.0805 22.2698C33.1855 22.9872 33.6407 23.8258 34.0591 24.4724C34.4562 25.0861 34.8201 25.5269 34.8201 25.5269C34.8201 25.5269 36.3853 22.5385 37.9858 21.1713C40.0321 19.4233 41.5702 18.6829 44.268 18.8103C46.9357 18.9363 47.3568 19.3461 48.8544 20.1572C49.7891 20.6636 51.1217 22.6881 51.1217 22.6881C51.9188 24.2014 52.1412 25.4797 51.8207 27.2848L51.8114 27.3371C51.6698 28.135 51.5759 28.6426 51.295 29.4429C50.9338 30.4715 50.3228 31.0153 50.3228 31.0153C49.5724 31.683 45.8829 31.7086 43.2017 31.6293C39.6645 31.5246 38.442 30.8249 36.1758 29.0724C35.2719 28.3733 34.5135 27.4911 33.906 26.5611C32.7607 24.8081 32.1518 22.8855 32.1157 21.7015C32.0811 20.5703 32.83 19.919 32.4897 18.8344Z" fill="#1D094E"/>
<path d="M36.4528 10.4913C36.2719 10.5512 35.5992 10.8186 35.6376 11.2976C35.6717 11.7228 35.9934 11.9518 36.3994 12.0944C36.8134 12.2399 39.6373 11.8365 41.3537 11.9479C42.7925 12.0413 44.6462 12.5933 44.6462 12.5933C44.6462 12.5933 44.9866 12.0139 44.8666 11.7015C44.7729 11.4575 44.2527 11.0977 44.2527 11.0977C44.2527 11.0977 42.3193 10.5241 40.8862 10.3558C38.9415 10.1274 36.9957 10.3116 36.4528 10.4913Z" fill="#1D094E"/>
<path d="M36.379 12.9658C36.2012 13.0343 35.5855 13.3443 35.6469 13.8212C35.7015 14.2447 36.0337 14.4582 36.4458 14.5814C36.866 14.7071 40.2935 14.0718 42.0121 14.1014C43.4527 14.1262 45.2545 14.5677 45.2545 14.5677C45.2545 14.5677 45.5985 13.9835 45.4637 13.677C45.3583 13.4375 44.8218 13.1027 44.8218 13.1027C44.8218 13.1027 42.8643 12.6215 41.4259 12.5215C38.8612 12.3434 36.9122 12.7603 36.379 12.9658Z" fill="#1D094E"/>
<path d="M36.5433 15.6374C36.3689 15.7137 35.7382 16.1494 35.8208 16.6234C35.8942 17.0443 36.2354 17.2431 36.6523 17.3481C37.0774 17.4551 40.8276 16.4359 42.5447 16.3895C43.984 16.3506 45.8784 16.7309 45.8784 16.7309C45.8784 16.7309 46.1497 16.0146 46.0014 15.7141C45.8855 15.4795 45.3581 15.1012 45.3581 15.1012C45.3581 15.1012 43.5062 14.6974 41.9187 14.7376C39.6169 14.7959 37.0664 15.4085 36.5433 15.6374Z" fill="#1D094E"/>
<path d="M28.9526 10.879C28.9526 10.879 24.509 13.2249 21.3071 13.165C19.3794 13.129 16.6652 11.459 16.6652 11.459C16.6652 11.459 16.9211 12.1087 16.9138 12.5432C16.8978 13.4874 13.147 22.1884 13.147 22.1884L10.5138 24.703C9.65669 25.6276 6.95998 26.5044 4.77449 28C4.06021 28.4888 3.40054 29.0437 2.87754 29.688C2.63292 29.9894 2.40567 30.2839 2.19525 30.5745C2.19525 30.5745 4.70419 27.7424 6.25624 27.1873C8.74267 26.298 9.48322 25.7633 13.612 26.2453C17.7876 26.7328 19.9831 28.2843 22.7304 31.5435C24.8791 34.0927 26.6045 39.1726 26.6045 39.1726C26.6045 39.1726 27.2643 38.5748 28.0143 37.7146C28.0143 37.7146 23.3873 28.857 23.5994 27.5115C23.8903 25.6664 24.8288 24.8658 25.4092 23.0924C26.6822 19.2032 26.6389 13.5346 27.0529 12.7327C27.53 11.8084 28.9526 10.879 28.9526 10.879Z" fill="#1D094E"/>
<path d="M16.6652 11.459C16.6652 11.459 13.4096 19.2007 10.7068 24.4368C10.6605 24.5264 10.5955 24.6149 10.5138 24.703L13.147 22.1884C13.147 22.1884 16.8978 13.4874 16.9138 12.5432C16.9211 12.1087 16.6652 11.459 16.6652 11.459Z" fill="#1D094E"/>
<path d="M28.9526 10.879C28.9526 10.879 31.0918 11.0647 32.2947 10.5367C33.3704 10.0646 35.4066 8.03103 35.572 6.14495C35.66 5.14237 35.8663 4.53118 35.2153 3.57443C34.2877 2.21126 32.7079 1.90827 31.5072 1.88583C31.5072 1.88583 28.7447 1.73956 27.1155 2.30386C25.2252 2.95858 22.9082 5.24596 22.9082 5.24596C26.2981 5.56876 28.7632 5.80779 29.4352 6.56999C29.7839 6.96553 30.8112 10.8682 30.8112 10.8682L28.9526 10.879Z" fill="#1D094E"/>
<path d="M32.2947 10.5367C31.0918 11.0647 28.9526 10.879 28.9526 10.879C28.9526 10.879 27.53 11.8084 27.0529 12.7327C26.6389 13.5346 26.6822 19.2032 25.4092 23.0924C24.8288 24.8658 23.8903 25.6664 23.5994 27.5115C23.3873 28.857 28.0143 37.7146 28.0143 37.7146C28.8046 36.8082 29.6951 35.6105 30.0198 34.5135C30.4978 32.8988 29.9351 31.6398 29.9619 30.0594C29.9895 28.8583 30.1393 28.5382 30.9369 27.6487C31.8891 26.587 34.0488 25.143 34.0488 25.143L36.6133 23.4367L39.5148 21.6018C39.801 16.6107 37.1821 5.6353 37.1821 5.6353C37.1821 5.6353 36.8291 4.02805 36.2894 3.18969C35.2063 1.50714 33.7889 1.11884 31.6544 1.07894C31.6544 1.07894 28.5175 1.13392 26.6962 1.86449C24.6618 2.68051 22.1569 5.18639 22.1569 5.18639C22.408 5.20213 22.6588 5.22221 22.9082 5.24596C22.9082 5.24596 25.2252 2.95858 27.1155 2.30386C28.7447 1.73956 31.5072 1.88583 31.5072 1.88583C32.7079 1.90827 34.2877 2.21126 35.2153 3.57443C35.8663 4.53118 35.66 5.14237 35.572 6.14495C35.4066 8.03103 33.3704 10.0646 32.2947 10.5367Z" fill="#1D094E"/>
<path d="M15.9131 8.56748L16.6652 11.459C16.6652 11.459 19.3794 13.129 21.3071 13.165C24.509 13.2249 28.9526 10.879 28.9526 10.879L30.8112 10.8682C30.8112 10.8682 29.7839 6.96553 29.4352 6.56999C28.7632 5.80779 26.2981 5.56876 22.9082 5.24596C22.6588 5.22221 22.408 5.20213 22.1569 5.18639C21.3653 5.13676 20.5714 5.13032 19.8114 5.18807C17.6736 5.35049 15.9131 8.56748 15.9131 8.56748Z" fill="#1D094E"/>
<path d="M31.71 29.2824C32.5402 27.5437 39.0712 24.1574 39.4897 23.0857C39.6391 22.1439 39.5712 22.1426 39.5148 21.6018L36.6133 23.4367L34.0488 25.143C34.0488 25.143 31.8891 26.587 30.9369 27.6487C30.1393 28.5382 29.9895 28.8583 29.9619 30.0594C29.9351 31.6398 30.4978 32.8988 30.0198 34.5135C29.6951 35.6105 28.8046 36.8082 28.0143 37.7146C27.2643 38.5748 26.6045 39.1726 26.6045 39.1726C26.6045 39.1726 24.8791 34.0927 22.7304 31.5435C19.9831 28.2843 17.7876 26.7328 13.612 26.2453C9.48322 25.7633 8.74267 26.298 6.25624 27.1873C4.70419 27.7424 2.19525 30.5745 2.19525 30.5745C0.625542 32.7419 -0.00721907 34.6877 0.074398 37.5971L0.0767552 37.6812C0.112726 38.9672 0.141518 39.7863 0.391212 41.1114C0.712168 42.8148 1.52753 43.8221 1.52753 43.8221C2.52884 45.0591 8.19383 46.0389 12.3328 46.5973C17.7933 47.3341 19.8317 46.5494 23.7137 44.3812C25.2622 43.5163 26.6288 42.3274 27.7742 41.0255C29.9336 38.571 31.3071 35.7144 31.6322 33.8689C31.9428 32.1057 30.94 30.8948 31.71 29.2824Z" fill="#1D094E"/>
<path d="M27.5179 15.204C27.7824 15.3439 28.7555 15.9342 28.5874 16.6746C28.4382 17.3321 27.8915 17.6088 27.235 17.7288C26.5657 17.8513 22.3171 16.5002 19.6536 16.2377C17.4209 16.0177 14.4461 16.4102 14.4461 16.4102C14.4461 16.4102 14.0548 15.4159 14.3104 14.9571C14.51 14.5987 15.3914 14.1677 15.3914 14.1677C15.3914 14.1677 18.4937 13.7614 20.7346 13.8627C23.7756 14.0002 26.7244 14.7843 27.5179 15.204Z" fill="#1D094E"/>
<path d="M27.0681 19.099C27.3257 19.2516 28.2015 19.8941 27.9985 20.6254C27.8183 21.2749 27.2591 21.5247 26.5976 21.6129C25.9232 21.7027 20.7996 19.8347 18.1514 19.4434C15.9315 19.1154 13.0617 19.3482 13.0617 19.3482C13.0617 19.3482 12.6659 18.3455 12.943 17.8996C13.1594 17.5514 14.0602 17.1635 14.0602 17.1635C14.0602 17.1635 17.1784 16.9082 19.4121 17.1179C23.3947 17.4919 26.2954 18.6414 27.0681 19.099Z" fill="#1D094E"/>
<path d="M26.2073 23.2422C26.458 23.4062 27.3282 24.2493 27.0933 24.9708C26.8847 25.6114 26.315 25.8359 25.6503 25.8942C24.9726 25.9536 19.4405 23.402 16.812 22.8921C14.6086 22.4646 11.6103 22.5779 11.6103 22.5779C11.6103 22.5779 11.3563 21.3868 11.6527 20.9539C11.8842 20.6157 12.781 20.1575 12.781 20.1575C12.781 20.1575 15.7192 19.9965 18.1502 20.4638C21.6747 21.1412 25.4554 22.7504 26.2073 23.2422Z" fill="#1D094E"/>
<path d="M19.0513 32.4058C16.9723 29.8439 15.3102 28.6247 12.1479 28.2434C9.021 27.8663 8.45982 28.2872 6.5761 28.9879C5.40028 29.4252 3.49847 31.6538 3.49847 31.6538C2.30839 33.3593 1.82809 34.8899 1.88833 37.178L1.89007 37.2442C1.91662 38.2556 1.93967 39.1336 2.12639 39.9419C2.16568 40.112 2.21223 40.279 2.26758 40.4435C2.26758 40.4435 2.75824 40.7481 4.44867 41.1529C6.1391 41.5576 7.06496 41.8387 8.77909 42.0831C10.4932 42.3275 14.8954 42.8189 18.196 41.0924C19.8486 40.2279 21.9815 38.404 21.9815 38.404C21.9815 38.404 20.6774 34.4097 19.0513 32.4058Z" fill="#A9B0E3"/>
<path d="M25.8537 30.6231C26.4835 29.2552 31.4319 26.5887 31.7495 25.7456C31.8631 25.0048 31.8117 25.0039 31.7693 24.5786L29.5707 26.0231L27.6274 27.3664C27.6274 27.3664 25.9909 28.5031 25.2691 29.3386C24.6645 30.0385 24.5508 30.2903 24.5293 31.235C24.5082 32.478 24.9337 33.4679 24.5708 34.7381C24.3242 35.601 23.6491 36.5434 23.0501 37.2566C22.4815 37.9336 21.9815 38.404 21.9815 38.404C21.9815 38.404 19.8486 40.2279 18.196 41.0924C14.8954 42.8189 10.4932 42.3275 8.77909 42.0831C7.06496 41.8387 6.1391 41.5576 4.44867 41.1529C2.75824 40.7481 2.26758 40.4435 2.26758 40.4435C2.4278 41.1149 2.3249 41.489 2.52379 41.75C3.47617 43 8.00288 44.1571 11.168 44.2505C14.5276 44.3497 16.8478 44.2091 19.7892 42.5019C20.9625 41.821 21.9982 40.8853 22.8664 39.8607C24.5033 37.9292 25.5451 35.682 25.7923 34.2303C26.0285 32.8434 25.2697 31.8916 25.8537 30.6231Z" fill="#FFF7F7"/>
<path d="M23.7752 16.1505C23.7752 16.1505 20.4083 17.9977 17.9833 17.9522C16.5233 17.9248 14.4684 16.6127 14.4684 16.6127C14.4684 16.6127 14.6619 17.1236 14.6561 17.4652C14.6434 18.2079 11.7979 25.0529 11.7979 25.0529L9.80218 27.0319C9.15246 27.7595 7.10949 28.4504 5.45338 29.6278C4.91212 30.0126 4.41219 30.4493 4.01572 30.9563C3.83028 31.1935 3.65799 31.4252 3.49847 31.6538C3.49847 31.6538 5.40028 29.4252 6.5761 28.9879C8.45982 28.2872 9.021 27.8663 12.1479 28.2434C15.3102 28.6247 16.9723 29.8439 19.0513 32.4058C20.6774 34.4097 21.9815 38.404 21.9815 38.404C21.9815 38.404 22.4815 37.9336 23.0501 37.2566C23.0501 37.2566 19.5504 30.2926 19.7117 29.2343C19.933 27.783 20.6443 27.1529 21.0849 25.7578C22.0512 22.6984 22.0214 18.2402 22.3354 17.6093C22.6972 16.8821 23.7752 16.1505 23.7752 16.1505Z" fill="#959BC7"/>
<path d="M14.4684 16.6127C14.4684 16.6127 11.9984 22.703 9.94845 26.8224C9.91338 26.8929 9.86411 26.9626 9.80218 27.0319L11.7979 25.0529C11.7979 25.0529 14.6434 18.2079 14.6561 17.4652C14.6619 17.1236 14.4684 16.6127 14.4684 16.6127Z" fill="#7D84B2"/>
<path d="M23.7752 16.1505C23.7752 16.1505 25.3953 16.2955 26.3067 15.8796C27.1217 15.5078 28.6651 13.9074 28.7914 12.4239C28.8585 11.6354 29.0151 11.1546 28.5226 10.4024C27.8207 9.33079 26.6244 9.09328 25.715 9.07622C25.715 9.07622 23.6227 8.96254 22.3884 9.40716C20.9564 9.92302 19.2002 11.7232 19.2002 11.7232C21.7676 11.9754 23.6345 12.1621 24.1431 12.7613C24.407 13.0722 25.183 16.141 25.183 16.141L23.7752 16.1505Z" fill="#5A639E"/>
<path d="M26.3067 15.8796C25.3953 16.2955 23.7752 16.1505 23.7752 16.1505C23.7752 16.1505 22.6972 16.8821 22.3354 17.6093C22.0214 18.2402 22.0512 22.6984 21.0849 25.7578C20.6443 27.1529 19.933 27.783 19.7117 29.2343C19.5504 30.2926 23.0501 37.2566 23.0501 37.2566C23.6491 36.5434 24.3242 35.601 24.5708 34.7381C24.9337 33.4679 24.5082 32.478 24.5293 31.235C24.5508 30.2903 24.6645 30.0385 25.2691 29.3386C25.9909 28.5031 27.6274 27.3664 27.6274 27.3664L29.5707 26.0231L31.7693 24.5786C31.9887 20.6529 30.0111 12.0223 30.0111 12.0223C30.0111 12.0223 29.7446 10.7584 29.3363 10.0993C28.5169 8.77656 27.4436 8.47187 25.8269 8.44154C25.8269 8.44154 23.451 8.48633 22.0711 9.06181C20.5298 9.7046 18.6312 11.6767 18.6312 11.6767C18.8214 11.6889 19.0113 11.7046 19.2002 11.7232C19.2002 11.7232 20.9564 9.92302 22.3884 9.40716C23.6227 8.96254 25.715 9.07622 25.715 9.07622C26.6244 9.09328 27.8207 9.33079 28.5226 10.4024C29.0151 11.1546 28.8585 11.6354 28.7914 12.4239C28.6651 13.9074 27.1217 15.5078 26.3067 15.8796Z" fill="#7D84B2"/>
<path d="M13.9003 14.3389L14.4684 16.6127C14.4684 16.6127 16.5233 17.9248 17.9833 17.9522C20.4083 17.9977 23.7752 16.1505 23.7752 16.1505L25.183 16.141C25.183 16.141 24.407 13.0722 24.1431 12.7613C23.6345 12.1621 21.7676 11.9754 19.2002 11.7232C19.0113 11.7046 18.8214 11.6889 18.6312 11.6767C18.0316 11.638 17.4304 11.6334 16.8547 11.6792C15.2355 11.8079 13.9003 14.3389 13.9003 14.3389Z" fill="#A9B0E3"/>
<path d="M22.6862 19.5527C22.8865 19.6626 23.6232 20.1264 23.4955 20.7088C23.3821 21.226 22.9679 21.4439 22.4706 21.5386C21.9636 21.6352 18.7465 20.5748 16.7292 20.3696C15.0383 20.1977 12.7849 20.5079 12.7849 20.5079C12.7849 20.5079 12.4891 19.726 12.6829 19.3651C12.8343 19.0831 13.5021 18.7437 13.5021 18.7437C13.5021 18.7437 15.852 18.4226 17.5493 18.5012C19.8524 18.6078 22.0854 19.2231 22.6862 19.5527Z" fill="white"/>
<path d="M22.3435 22.6163C22.5385 22.7362 23.2014 23.241 23.0473 23.8163C22.9105 24.3272 22.4868 24.524 21.9857 24.5936C21.4749 24.6646 17.5953 23.198 15.5897 22.8915C13.9086 22.6347 11.7348 22.8192 11.7348 22.8192C11.7348 22.8192 11.4356 22.0308 11.6457 21.68C11.8098 21.406 12.4923 21.1005 12.4923 21.1005C12.4923 21.1005 14.8542 20.8981 16.5459 21.062C19.5621 21.3542 21.7584 22.2568 22.3435 22.6163Z" fill="white"/>
<path d="M21.6893 25.8753C21.8791 26.0041 22.5377 26.6668 22.3594 27.2343C22.2011 27.7383 21.7695 27.9151 21.266 27.9613C20.7526 28.0084 16.564 26.0043 14.5734 25.6045C12.9048 25.2695 10.6338 25.36 10.6338 25.36C10.6338 25.36 10.4421 24.4234 10.6668 24.0827C10.8423 23.8167 11.5219 23.4558 11.5219 23.4558C11.5219 23.4558 13.7473 23.3278 15.5883 23.6941C18.2574 24.2251 21.1201 25.4888 21.6893 25.8753Z" fill="white"/>
<path d="M41.5336 23.4442C42.6945 22.1486 43.602 21.5505 45.2808 21.4356C46.9407 21.3219 47.2265 21.5594 48.2035 21.9807C48.8134 22.2437 49.7621 23.472 49.7621 23.472C50.348 24.4048 50.5637 25.2259 50.4752 26.4321L50.4726 26.467C50.4336 27.0001 50.3996 27.463 50.2811 27.8845C50.2561 27.9732 50.2274 28.0601 50.1941 28.1454C50.1941 28.1454 49.9275 28.2929 49.0252 28.4604C48.1228 28.6278 47.6271 28.7509 46.7162 28.8332C45.8054 28.9154 43.4694 29.0545 41.7699 28.053C40.9189 27.5515 39.8382 26.5305 39.8382 26.5305C39.8382 26.5305 40.6255 24.4576 41.5336 23.4442Z" fill="#A9B0E3"/>
<path d="M37.9869 22.3174C37.6884 21.5782 35.1423 20.0355 34.9956 19.5817C34.9539 19.1876 34.9811 19.1885 35.014 18.9652L36.1388 19.7877L37.1313 20.5499C37.1313 20.5499 37.9671 21.1946 38.3273 21.6553C38.6292 22.0413 38.6829 22.1774 38.6709 22.6766C38.6513 23.3333 38.4021 23.8443 38.5622 24.5246C38.671 24.9869 39.004 25.5028 39.3026 25.8957C39.5859 26.2685 39.8382 26.5305 39.8382 26.5305C39.8382 26.5305 40.9189 27.5515 41.7699 28.053C43.4694 29.0545 45.8054 28.9154 46.7162 28.8332C47.6271 28.7509 48.1228 28.6278 49.0252 28.4604C49.9275 28.2929 50.1941 28.1454 50.1941 28.1454C50.0929 28.4955 50.0232 28.5017 49.9048 28.75C49.5984 29.3921 47.0746 29.9491 45.4015 29.912C43.6256 29.8726 42.4044 29.735 40.894 28.7535C40.2915 28.362 39.768 27.8398 39.335 27.2753C38.5188 26.211 38.0245 24.9963 37.93 24.2233C37.8397 23.4847 38.2638 23.003 37.9869 22.3174Z" fill="#FFF7F7"/>
<path d="M39.4426 14.7345C39.4426 14.7345 41.1741 15.8016 42.4554 15.8438C43.2268 15.8692 44.3439 15.2327 44.3439 15.2327C44.3439 15.2327 44.2292 15.4971 44.2238 15.6776C44.212 16.07 45.5446 19.761 45.5446 19.761L46.549 20.8601C46.874 21.262 47.9353 21.6824 48.7803 22.3492C49.0565 22.5671 49.3096 22.8113 49.5063 23.0897C49.5983 23.22 49.6835 23.347 49.7621 23.472C49.7621 23.472 48.8134 22.2437 48.2035 21.9807C47.2265 21.5594 46.9407 21.3219 45.2808 21.4356C43.602 21.5505 42.6945 22.1486 41.5336 23.4442C40.6255 24.4576 39.8382 26.5305 39.8382 26.5305C39.8382 26.5305 39.5859 26.2685 39.3026 25.8957C39.3026 25.8957 41.3225 22.3151 41.2635 21.7521C41.1826 20.9799 40.8228 20.6279 40.6248 19.8794C40.1905 18.2381 40.3166 15.8855 40.1665 15.5439C39.9935 15.1502 39.4426 14.7345 39.4426 14.7345Z" fill="#959BC7"/>
<path d="M44.3439 15.2327C44.3439 15.2327 45.4969 18.515 46.477 20.7456C46.4938 20.7837 46.518 20.8218 46.549 20.8601L45.5446 19.761C45.5446 19.761 44.212 16.07 44.2238 15.6776C44.2292 15.4971 44.3439 15.2327 44.3439 15.2327Z" fill="#7D84B2"/>
<path d="M39.4426 14.7345C39.4426 14.7345 38.5838 14.7668 38.113 14.5224C37.692 14.3039 36.917 13.4169 36.887 12.6304C36.8711 12.2123 36.8004 11.9543 37.079 11.5707C37.476 11.0241 38.1134 10.9314 38.5939 10.9473C38.5939 10.9473 39.7012 10.9444 40.3417 11.2128C41.0849 11.5242 41.9673 12.5224 41.9673 12.5224C40.6058 12.5854 39.6157 12.6331 39.3324 12.9354C39.1854 13.0923 38.6997 14.6911 38.6997 14.6911L39.4426 14.7345Z" fill="#5A639E"/>
<path d="M38.113 14.5224C38.5838 14.7668 39.4426 14.7345 39.4426 14.7345C39.4426 14.7345 39.9935 15.1502 40.1665 15.5439C40.3166 15.8855 40.1905 18.2381 40.6248 19.8794C40.8228 20.6279 41.1826 20.9799 41.2635 21.7521C41.3225 22.3151 39.3026 25.8957 39.3026 25.8957C39.004 25.5028 38.671 24.9869 38.5622 24.5246C38.4021 23.8443 38.6513 23.3333 38.6709 22.6766C38.6829 22.1774 38.6292 22.0413 38.3273 21.6553C37.9671 21.1946 37.1313 20.5499 37.1313 20.5499L36.1388 19.7877L35.014 18.9652C34.9954 16.8869 36.2531 12.3851 36.2531 12.3851C36.2531 12.3851 36.4251 11.7252 36.657 11.3884C37.1223 10.7126 37.6964 10.581 38.5506 10.6092C38.5506 10.6092 39.8036 10.6977 40.5178 11.0392C41.3155 11.4206 42.2688 12.5134 42.2688 12.5134C42.1681 12.5147 42.0675 12.5178 41.9673 12.5224C41.9673 12.5224 41.0849 11.5242 40.3417 11.2128C39.7012 10.9444 38.5939 10.9473 38.5939 10.9473C38.1134 10.9314 37.476 11.0241 37.079 11.5707C36.8004 11.9543 36.8711 12.2123 36.887 12.6304C36.917 13.4169 37.692 14.3039 38.113 14.5224Z" fill="#7D84B2"/>
<path d="M44.7002 14.048L44.3439 15.2327C44.3439 15.2327 43.2268 15.8692 42.4554 15.8438C41.1741 15.8016 39.4426 14.7345 39.4426 14.7345L38.6997 14.6911C38.6997 14.6911 39.1854 13.0923 39.3324 12.9354C39.6157 12.6331 40.6058 12.5854 41.9673 12.5224C42.0675 12.5178 42.1681 12.5147 42.2688 12.5134C42.5862 12.5094 42.9038 12.5234 43.2065 12.5633C44.0581 12.6755 44.7002 14.048 44.7002 14.048Z" fill="#A9B0E3"/>
<path d="M39.9332 16.5602C39.8248 16.6128 39.4244 16.8375 39.4774 17.1484C39.5244 17.4245 39.7377 17.5508 39.9978 17.6144C40.2631 17.6793 41.9876 17.2073 43.0575 17.1541C43.9544 17.1095 45.1361 17.3348 45.1361 17.3348C45.1361 17.3348 45.3117 16.9302 45.2183 16.7343C45.1454 16.5814 44.8013 16.3839 44.8013 16.3839C44.8013 16.3839 43.5688 16.1503 42.6709 16.1454C41.4525 16.1388 40.2585 16.4026 39.9332 16.5602Z" fill="white"/>
<path d="M40.0382 18.1868C39.9323 18.2447 39.5698 18.4931 39.6369 18.801C39.6965 19.0744 39.9153 19.1899 40.1781 19.2403C40.446 19.2917 42.5302 18.6235 43.5965 18.5165C44.4903 18.4268 45.6332 18.5836 45.6332 18.5836C45.6332 18.5836 45.8107 18.1756 45.7084 17.9846C45.6286 17.8355 45.2759 17.6556 45.2759 17.6556C45.2759 17.6556 44.0341 17.4843 43.1371 17.5246C41.5377 17.5965 40.3559 18.013 40.0382 18.1868Z" fill="white"/>
<path d="M40.3028 19.9249C40.1994 19.9878 39.8353 20.3196 39.9154 20.624C39.9865 20.8944 40.21 20.9995 40.4746 21.0376C40.7444 21.0765 43.0051 20.133 44.0658 19.9764C44.9549 19.845 46.1515 19.9549 46.1515 19.9549C46.1515 19.9549 46.2759 19.4657 46.1657 19.2797C46.0796 19.1345 45.7298 18.9254 45.7298 18.9254C45.7298 18.9254 44.5582 18.7971 43.5774 18.9402C42.1553 19.1476 40.6129 19.7365 40.3028 19.9249Z" fill="white"/>
</svg>
